<svg id="Capa_1" enable-background="new 0 0 512 512" height="512" viewBox="0 0 512 512" width="512" xmlns="http://www.w3.org/2000/svg"><path d="m35.982 15.5h440.017v30h-440.017z" fill="#cc814a"/><path d="m410.9 504.343-153.8-43.974c-.719-.205-1.481-.205-2.199 0l-153.801 43.974c-2.555.731-5.1-1.188-5.1-3.846v-492.997h320v492.998c0 2.657-2.544 4.576-5.1 3.845z" fill="#ffd740"/><path d="m386 7.5v489.724l24.9 7.12c2.555.731 5.1-1.188 5.1-3.846v-492.998z" fill="#ffc400"/><path d="m126 7.5h260v458.521l-120.653-34.497c-3.04-.869-6.185-1.31-9.347-1.31s-6.307.441-9.348 1.311l-120.652 34.497z" fill="#ef5350"/><path d="m356 7.5v449.944l30 8.577v-458.521z" fill="#f44336"/><circle cx="481.499" cy="30.5" fill="#ffc400" r="23"/><circle cx="30.501" cy="30.5" fill="#ffd740" r="23"/><path d="m329.942 252.544-43.691-5.209c-4.58-.546-8.463 3.338-7.917 7.917l5.214 43.684c.327 2.74-1.273 5.339-3.864 6.287-5.293 1.937-14.6 4.776-23.681 4.776s-18.389-2.839-23.681-4.776c-2.591-.948-4.191-3.547-3.864-6.286l5.209-43.686c.546-4.579-3.337-8.463-7.917-7.917l-43.692 5.209c-2.741.327-5.34-1.274-6.287-3.866-1.935-5.291-4.771-14.597-4.771-23.677s2.836-18.386 4.771-23.678c.948-2.592 3.547-4.193 6.287-3.866l43.693 5.209c4.579.546 8.463-3.337 7.917-7.916l-5.209-43.691c-.327-2.74 1.274-5.339 3.866-6.287 5.293-1.935 14.599-4.771 23.679-4.771s18.386 2.836 23.679 4.77c2.592.948 4.193 3.547 3.866 6.288l-5.214 43.69c-.547 4.58 3.337 8.463 7.917 7.917l43.692-5.209c2.741-.327 5.34 1.274 6.287 3.866 1.933 5.292 4.769 14.598 4.769 23.678s-2.836 18.386-4.771 23.678c-.947 2.593-3.547 4.193-6.287 3.866z" fill="#80d8ff"/><path d="m416 120.473c-4.142 0-7.5 3.358-7.5 7.5v367.879l-149.338-42.698c-2.069-.592-4.256-.592-6.323 0l-149.339 42.698v-480.852h15v369.074c0 4.142 3.358 7.5 7.5 7.5s7.5-3.358 7.5-7.5v-369.074h26.68c4.142 0 7.5-3.358 7.5-7.5s-3.358-7.5-7.5-7.5h-64.18c-4.142 0-7.5 3.358-7.5 7.5v.5h-37.428c-5.428-4.966-12.652-8-20.571-8-16.818 0-30.501 13.682-30.501 30.5s13.683 30.5 30.501 30.5c7.919 0 15.143-3.034 20.571-8h37.428v447.494c0 7.66 7.323 13.155 14.661 11.057l152.839-43.7 152.838 43.698c7.352 2.1 14.662-3.408 14.662-11.057v-372.52c0-4.141-3.358-7.499-7.5-7.499zm-401-89.973c0-8.547 6.954-15.5 15.501-15.5s15.501 6.953 15.501 15.5c0 8.546-6.954 15.5-15.501 15.5s-15.501-6.953-15.501-15.5zm45.069 7.5c.609-2.4.933-4.913.933-7.5s-.324-5.1-.933-7.5h28.431v15z"/><path d="m481.499 0c-7.919 0-15.143 3.034-20.571 8h-37.428v-.5c0-4.142-3.358-7.5-7.5-7.5h-224.026c-4.142 0-7.5 3.358-7.5 7.5s3.358 7.5 7.5 7.5h186.526v441.073l-111.091-31.763c-7.422-2.122-15.397-2.122-22.818 0l-111.091 31.763v-40.308c0-4.142-3.358-7.5-7.5-7.5s-7.5 3.358-7.5 7.5v50.253c0 4.985 4.78 8.578 9.562 7.211l120.653-34.496c4.739-1.355 9.831-1.355 14.57 0l120.653 34.496c4.782 1.368 9.562-2.226 9.562-7.211v-451.018h15v.281c-.002.073-.003.146-.003.219s.001.146.003.219v29.561c-.002.073-.003.146-.003.219s.001.146.003.219v50.665c0 4.142 3.358 7.5 7.5 7.5s7.5-3.358 7.5-7.5v-43.383h37.428c5.428 4.966 12.651 8 20.571 8 16.818 0 30.501-13.682 30.501-30.5s-13.683-30.5-30.501-30.5zm-57.999 23h28.431c-.609 2.4-.933 4.913-.933 7.5s.324 5.1.933 7.5h-28.431zm57.999 23c-8.576 0-15.501-6.981-15.501-15.5 0-8.51 6.918-15.5 15.501-15.5 8.547 0 15.501 6.953 15.501 15.5s-6.954 15.5-15.501 15.5z"/><path d="m168.727 251.251c2.152 5.887 8.004 9.474 14.219 8.738l43.218-5.153-5.153 43.211c-.741 6.218 2.85 12.065 8.733 14.217 6.523 2.388 16.375 5.233 26.259 5.233 9.882 0 19.733-2.845 26.258-5.232 5.884-2.153 9.476-8 8.734-14.22l-5.158-43.209 43.216 5.153c6.228.746 12.068-2.852 14.219-8.738 2.385-6.522 5.227-16.371 5.227-26.254s-2.842-19.732-5.227-26.252c-2.151-5.888-8-9.481-14.219-8.739l-43.217 5.152 5.158-43.213c.742-6.221-2.851-12.068-8.738-14.221-6.522-2.384-16.371-5.227-26.254-5.227-9.88 0-19.73 2.842-26.255 5.227-5.886 2.152-9.479 7.999-8.737 14.219l5.153 43.215-43.216-5.152c-6.223-.743-12.069 2.851-14.22 8.737-2.385 6.522-5.227 16.371-5.227 26.254s2.842 19.732 5.227 26.254zm13.676-46.203 42.459 5.062c4.481.534 8.881-.99 12.072-4.181 3.191-3.19 4.714-7.59 4.18-12.071l-5.063-42.457c4.649-1.621 12.517-3.903 19.951-3.903 7.437 0 15.303 2.282 19.95 3.903l-5.067 42.456c-.535 4.481.989 8.881 4.18 12.072 3.191 3.192 7.591 4.718 12.072 4.181l42.458-5.062c1.621 4.647 3.903 12.513 3.903 19.95 0 7.435-2.282 15.302-3.903 19.95l-42.458-5.062c-4.48-.534-8.882.99-12.073 4.182-3.19 3.191-4.714 7.591-4.179 12.072l5.067 42.451c-4.648 1.622-12.517 3.907-19.951 3.907-7.436 0-15.303-2.285-19.951-3.907l5.063-42.453c.534-4.48-.989-8.88-4.18-12.071-3.19-3.191-7.589-4.714-12.072-4.181l-42.459 5.062c-1.621-4.647-3.903-12.514-3.903-19.95.001-7.436 2.283-15.302 3.904-19.95z"/></svg>