<svg id="Capa_1" enable-background="new 0 0 511.997 511.997" height="512" viewBox="0 0 511.997 511.997" width="512" xmlns="http://www.w3.org/2000/svg"><g><g><g><path d="m342.036 59.885 32.639-12.518c5.944-2.28 12.674-.848 17.176 3.653l59.484 59.484c4.502 4.502 5.933 11.232 3.653 17.176l-12.519 32.638c-1.638 4.27-5.011 7.643-9.281 9.281l-32.638 12.518c-5.944 2.28-12.674.849-17.176-3.653l-59.484-59.484c-4.502-4.502-5.933-11.231-3.653-17.176l12.518-32.639c1.638-4.269 5.012-7.643 9.281-9.28z" fill="#de5791"/></g></g><g><g><path d="m451.335 110.504-59.484-59.484c-4.502-4.502-11.231-5.933-17.176-3.653l-11.91 4.568 58.569 58.569c4.502 4.502 5.933 11.231 3.653 17.176l-12.519 32.638c-1.638 4.27-5.011 7.643-9.281 9.281l-20.728 7.95.914.915c4.502 4.502 11.232 5.933 17.176 3.653l32.638-12.518c4.27-1.638 7.643-5.011 9.281-9.281l12.519-32.638c2.281-5.945.85-12.674-3.652-17.176z" fill="#db387e"/></g></g><g><g><path d="m317.825 213.039 15.134-15.135c6.297-6.297 16.506-6.297 22.803 0l19.359 19.359c4.502 4.502 11.231 5.933 17.176 3.653l66.648-25.562c4.27-1.638 7.643-5.011 9.281-9.281l25.562-66.648c2.28-5.944.849-12.674-3.653-17.176l-90.03-90.03c-4.502-4.502-11.231-5.933-17.176-3.653l-66.649 25.563c-4.27 1.638-7.643 5.011-9.281 9.281l-25.562 66.648c-2.28 5.944-.849 12.674 3.653 17.176l18.825 18.825c6.297 6.297 6.297 16.506 0 22.803l-149.071 149.072-88.849 88.849c-2.888 2.888-7.57 2.888-10.458 0l-12.81-12.81c-2.888-2.888-7.57-2.888-10.458 0l-12.969 12.968c-2.888 2.888-2.888 7.57 0 10.458l18.038 18.039 29.043 29.043 37.85 37.85c2.888 2.888 7.57 2.888 10.458 0l12.968-12.968c2.888-2.888 2.888-7.57 0-10.458l-32.621-32.621c-2.888-2.888-2.888-7.57 0-10.458l13.889-13.888c2.888-2.888 7.57-2.888 10.458 0l8.631 8.631c2.888 2.888 7.57 2.888 10.458 0l12.968-12.969c2.888-2.888 2.888-7.57 0-10.458l-8.63-8.63c-2.888-2.888-2.888-7.57 0-10.458l12.422-12.422c2.888-2.888 7.57-2.888 10.458 0l8.63 8.631c2.888 2.888 7.57 2.888 10.458 0l12.969-12.969c2.888-2.888 2.888-7.57 0-10.458l-8.63-8.631c-2.888-2.888-2.888-7.57 0-10.458l102.071-102.071m-.001.001 26.638-26.638m24.211-153.154 32.639-12.518c5.944-2.28 12.674-.848 17.176 3.653l59.484 59.484c4.502 4.502 5.933 11.232 3.653 17.176l-12.519 32.638c-1.638 4.27-5.011 7.643-9.281 9.281l-32.638 12.518c-5.944 2.28-12.674.849-17.176-3.653l-59.484-59.484c-4.502-4.502-5.933-11.231-3.653-17.176l12.518-32.639c1.638-4.269 5.012-7.643 9.281-9.28z" fill="#faf063"/></g></g><g><g><path d="m490.134 102.25-90.03-90.03c-4.502-4.502-11.231-5.933-17.176-3.653l-11.91 4.568 89.116 89.116c4.502 4.502 5.933 11.231 3.654 17.176l-25.562 66.648c-1.638 4.27-5.011 7.643-9.281 9.281l-54.738 20.994.914.914c4.502 4.502 11.231 5.933 17.176 3.653l66.647-25.562c4.27-1.637 7.643-5.011 9.281-9.281l25.562-66.648c2.281-5.944.849-12.674-3.653-17.176z" fill="#f8e837"/></g></g><g><g><path d="m211.651 241.982c-6.413 6.413-6.413 16.811 0 23.224l24.963 24.963c6.413 6.413 16.811 6.413 23.224 0 6.413-6.413 6.413-16.811 0-23.224l-24.963-24.963c-6.413-6.413-16.81-6.413-23.224 0z" fill="#ecd833"/></g></g><g><g><path d="m265.819 187.815c-6.413 6.413-6.413 16.811 0 23.224l24.963 24.963c6.413 6.413 16.811 6.413 23.224 0 6.413-6.413 6.413-16.811 0-23.224l-24.963-24.963c-6.413-6.414-16.811-6.414-23.224 0z" fill="#ecd833"/></g></g><g><g><path d="m317.041 383.706c-4.143 0-7.5 3.358-7.5 7.5v6.28c0 4.142 3.357 7.5 7.5 7.5s7.5-3.358 7.5-7.5v-6.28c0-4.142-3.357-7.5-7.5-7.5z"/></g></g><g><g><path d="m340.204 407.191h-6.28c-4.143 0-7.5 3.358-7.5 7.5s3.357 7.5 7.5 7.5h6.28c4.143 0 7.5-3.358 7.5-7.5s-3.357-7.5-7.5-7.5z"/></g></g><g><g><path d="m316.72 424.074c-4.143 0-7.5 3.358-7.5 7.5v6.281c0 4.142 3.357 7.5 7.5 7.5s7.5-3.358 7.5-7.5v-6.281c0-4.142-3.357-7.5-7.5-7.5z"/></g></g><g><g><path d="m299.836 406.87h-6.28c-4.143 0-7.5 3.358-7.5 7.5s3.357 7.5 7.5 7.5h6.28c4.143 0 7.5-3.358 7.5-7.5 0-4.143-3.357-7.5-7.5-7.5z"/></g></g><g><g><path d="m76.72 256.532c4.143 0 7.5-3.358 7.5-7.5v-6.28c0-4.142-3.357-7.5-7.5-7.5s-7.5 3.358-7.5 7.5v6.28c0 4.142 3.357 7.5 7.5 7.5z"/></g></g><g><g><path d="m93.604 273.737h6.28c4.143 0 7.5-3.358 7.5-7.5s-3.357-7.5-7.5-7.5h-6.28c-4.143 0-7.5 3.358-7.5 7.5s3.357 7.5 7.5 7.5z"/></g></g><g><g><path d="m76.399 296.9c4.143 0 7.5-3.358 7.5-7.5v-6.281c0-4.142-3.357-7.5-7.5-7.5-4.142 0-7.5 3.358-7.5 7.5v6.281c0 4.142 3.357 7.5 7.5 7.5z"/></g></g><g><g><path d="m53.236 273.415h6.28c4.143 0 7.5-3.358 7.5-7.5s-3.357-7.5-7.5-7.5h-6.28c-4.143 0-7.5 3.358-7.5 7.5s3.357 7.5 7.5 7.5z"/></g></g><g><g><path d="m495.438 96.947-38.041-38.042c-2.929-2.929-7.677-2.93-10.607 0-2.929 2.929-2.929 7.678 0 10.606l38.041 38.042c2.405 2.405 3.173 6.011 1.954 9.187l-25.561 66.648c-.874 2.28-2.684 4.089-4.964 4.964l-66.647 25.562c-3.176 1.217-6.782.45-9.187-1.954l-19.358-19.359c-9.212-9.21-24.197-9.211-33.411 0l-11.609 11.609-18.436-18.436 11.61-11.61c9.211-9.211 9.211-24.199 0-33.41l-18.825-18.825c-2.405-2.405-3.173-6.011-1.954-9.187l25.562-66.647c.874-2.28 2.684-4.089 4.964-4.964l66.647-25.562c3.177-1.218 6.783-.45 9.186 1.954l30.997 30.996c2.93 2.929 7.678 2.929 10.607 0s2.929-7.678 0-10.606l-30.998-30.996c-6.588-6.588-16.468-8.689-25.165-5.352l-66.647 25.562c-6.246 2.396-11.202 7.351-13.599 13.598l-25.561 66.648c-3.336 8.699-1.235 18.576 5.352 25.165l18.825 18.825c3.363 3.363 3.363 8.834 0 12.197l-13.28 13.28c-2.507-.875-5.169-1.333-7.902-1.333-6.39 0-12.398 2.488-16.916 7.007-6.694 6.694-8.556 16.392-5.643 24.787l-23.738 23.738c-8.395-2.913-18.092-1.051-24.786 5.643s-8.556 16.392-5.643 24.787l-97.028 97.028c-2.929 2.929-2.929 7.678 0 10.606 1.465 1.464 3.385 2.197 5.304 2.197s3.839-.732 5.304-2.197l95.327-95.327 18.436 18.436-44.236 44.236c-5.807 5.807-5.807 15.257 0 21.064l8.557 8.556-12.82 12.82-8.555-8.557c-5.81-5.809-15.258-5.807-21.065 0l-12.422 12.422c-5.807 5.807-5.807 15.256.001 21.064l8.556 8.556-12.82 12.82-8.556-8.557c-2.813-2.813-6.554-4.362-10.532-4.362s-7.719 1.549-10.532 4.363l-13.889 13.888c-5.807 5.807-5.807 15.257 0 21.064l32.548 32.547-12.82 12.819-84.784-84.785 12.819-12.819 12.735 12.736c5.808 5.805 15.257 5.806 21.065-.001l22.897-22.897c2.929-2.929 2.929-7.678 0-10.606-2.93-2.929-7.678-2.929-10.607 0l-22.822 22.823-12.735-12.736c-5.809-5.808-15.256-5.808-21.064 0l-12.969 12.969c-5.807 5.807-5.807 15.257 0 21.064l84.932 84.931c2.813 2.814 6.554 4.363 10.532 4.363 3.979 0 7.72-1.549 10.532-4.363l12.97-12.968c2.813-2.813 4.362-6.554 4.362-10.532 0-3.979-1.55-7.719-4.362-10.532l-32.548-32.547 13.739-13.74 8.556 8.556c5.809 5.807 15.257 5.808 21.065 0l12.969-12.969c5.807-5.807 5.807-15.257-.001-21.064l-8.556-8.556 12.273-12.273 8.555 8.557c2.814 2.813 6.554 4.362 10.532 4.362 3.98 0 7.72-1.549 10.533-4.362l12.969-12.969c5.807-5.807 5.807-15.257 0-21.064l-8.557-8.556 45.862-45.862c2.546.884 5.205 1.353 7.872 1.353 6.125 0 12.251-2.331 16.915-6.995 6.694-6.693 8.556-16.392 5.643-24.786l23.738-23.738c2.546.883 5.205 1.353 7.871 1.353 6.126 0 12.252-2.332 16.916-6.996 6.693-6.693 8.555-16.392 5.642-24.787l13.311-13.311c3.363-3.362 8.835-3.363 12.196 0l19.359 19.36c4.51 4.509 10.56 6.916 16.72 6.916 2.838 0 5.7-.511 8.444-1.564l66.646-25.562c6.247-2.395 11.203-7.351 13.6-13.598l25.561-66.647c3.338-8.7 1.237-18.577-5.351-25.166zm-251.996 142.995 20.336-20.336 18.436 18.436-20.336 20.336zm11.092 44.924c-3.479 3.479-9.139 3.478-12.616 0l-24.963-24.963c-3.48-3.479-3.48-9.139 0-12.618 1.739-1.739 4.023-2.609 6.308-2.609s4.569.87 6.309 2.609l24.963 24.963c3.479 3.479 3.479 9.14-.001 12.618zm54.168-54.167c-3.479 3.479-9.139 3.479-12.617 0l-24.963-24.963c-3.48-3.479-3.48-9.139 0-12.618 1.684-1.686 3.926-2.613 6.309-2.613s4.624.928 6.309 2.613l24.963 24.962c3.478 3.479 3.478 9.14-.001 12.619z"/></g></g><g><g><path d="m371.99 40.364-32.639 12.518c-6.247 2.396-11.203 7.352-13.599 13.598l-12.518 32.639c-3.336 8.699-1.234 18.577 5.353 25.164l59.484 59.484c4.51 4.51 10.56 6.917 16.72 6.917 2.839 0 5.701-.511 8.445-1.564l32.638-12.519c6.246-2.395 11.202-7.352 13.598-13.597l12.518-32.639c3.337-8.699 1.235-18.577-5.352-25.165l-59.483-59.484c-6.588-6.588-16.467-8.688-25.165-5.352zm75.995 84.63-12.519 32.639c-.874 2.28-2.684 4.089-4.963 4.964l-32.638 12.519c-3.177 1.218-6.783.45-9.186-1.954l-59.484-59.484c-2.405-2.405-3.172-6.011-1.954-9.187l12.518-32.638c.874-2.28 2.684-4.089 4.964-4.964l32.639-12.518c3.177-1.218 6.783-.45 9.186 1.954l59.483 59.484c2.405 2.403 3.172 6.009 1.954 9.185z"/></g></g></g></svg>