<svg height="512pt" viewBox="-51 0 511 512" width="512pt" xmlns="http://www.w3.org/2000/svg"><path d="m275.566406 419.648438v-30.871094c0-2.746094 2.226563-4.972656 4.96875-4.972656h10.160156c2.742188 0 4.96875-2.222657 4.96875-4.96875v-29.988282c0-2.746094-2.226562-4.972656-4.96875-4.972656h-76.550781c-2.746093 0-4.972656 2.226562-4.972656 4.972656v110.730469c0 2.746094 2.226563 4.96875 4.972656 4.96875h76.550781c2.742188 0 4.96875-2.222656 4.96875-4.96875v-29.988281c0-2.746094-2.226562-4.972656-4.96875-4.972656h-10.160156c-2.742187 0-4.96875-2.222657-4.96875-4.96875zm0 0" fill="#ffa511"/><path d="m280.535156 383.808594h10.160156c2.742188 0 4.96875-2.226563 4.96875-4.972656v-29.988282c0-2.746094-2.226562-4.96875-4.96875-4.96875h-27.167968c2.746094 0 4.96875 2.222656 4.96875 4.96875v29.988282c0 2.746093-2.222656 4.972656-4.96875 4.972656h-10.15625c-2.746094 0-4.972656 2.222656-4.972656 4.96875v30.875c0 2.742187 2.226562 4.96875 4.972656 4.96875h10.15625c2.746094 0 4.96875 2.226562 4.96875 4.96875v29.992187c0 2.742188-2.222656 4.96875-4.96875 4.96875h27.167968c2.742188 0 4.96875-2.226562 4.96875-4.96875v-29.992187c0-2.742188-2.226562-4.96875-4.96875-4.96875h-10.160156c-2.742187 0-4.96875-2.226563-4.96875-4.96875v-30.875c0-2.746094 2.226563-4.96875 4.96875-4.96875zm0 0" fill="#f77900"/><path d="m221.5625 504.546875h-24.777344c-5.523437 0-10-4.476563-10-10v-266.582031c0-5.523438 4.476563-10 10-10h24.777344c5.523438 0 10 4.476562 10 10v266.582031c0 5.523437-4.476562 10-10 10zm0 0" fill="#ffa511"/><path d="m221.621094 217.964844h-20.921875c5.492187 0 9.941406 4.449218 9.941406 9.9375v266.703125c0 5.488281-4.449219 9.941406-9.941406 9.941406h20.921875c5.492187 0 9.941406-4.453125 9.941406-9.941406v-266.703125c0-5.488282-4.449219-9.9375-9.941406-9.9375zm0 0" fill="#f77900"/><g fill="#ffa511"><path d="m265.503906 260.785156c-43.585937 0-79.042968-35.457031-79.042968-79.042968 0-43.582032 35.457031-79.039063 79.042968-79.039063 43.582032 0 79.039063 35.457031 79.039063 79.039063 0 43.585937-35.457031 79.042968-79.039063 79.042968zm0-107.394531c-15.636718 0-28.351562 12.71875-28.351562 28.351563 0 15.632812 12.714844 28.351562 28.351562 28.351562 15.632813 0 28.351563-12.71875 28.351563-28.351562 0-15.632813-12.71875-28.351563-28.351563-28.351563zm0 0"/><path d="m210.640625 165.535156c-43.582031 0-79.042969-35.457031-79.042969-79.039062 0-43.585938 35.460938-79.042969 79.042969-79.042969s79.039063 35.457031 79.039063 79.042969c0 43.582031-35.457032 79.039062-79.039063 79.039062zm0-107.390625c-15.632813 0-28.351563 12.71875-28.351563 28.351563 0 15.632812 12.71875 28.351562 28.351563 28.351562s28.351563-12.71875 28.351563-28.351562c0-15.632813-12.71875-28.351563-28.351563-28.351563zm0 0"/><path d="m287.289062 105.78125c1.558594-6.175781 2.390626-12.636719 2.390626-19.285156 0-43.585938-35.457032-79.042969-79.039063-79.042969s-79.042969 35.457031-79.042969 79.042969c0 6.652344.835938 13.109375 2.390625 19.285156-33.015625 9.484375-57.25 39.9375-57.25 75.960938 0 43.585937 35.457031 79.042968 79.039063 79.042968 21.296875 0 40.636718-8.480468 54.863281-22.222656 14.226563 13.742188 33.566406 22.222656 54.859375 22.222656 43.585938 0 79.042969-35.457031 79.042969-79.042968 0-36.023438-24.234375-66.476563-57.253907-75.960938zm-76.648437-47.636719c15.632813 0 28.351563 12.71875 28.351563 28.351563 0 15.632812-12.71875 28.351562-28.351563 28.351562s-28.351563-12.71875-28.351563-28.351562c0-15.632813 12.71875-28.351563 28.351563-28.351563zm-54.863281 151.949219c-15.632813 0-28.351563-12.71875-28.351563-28.351562 0-15.632813 12.71875-28.351563 28.351563-28.351563 15.632812 0 28.351562 12.71875 28.351562 28.351563 0 15.632812-12.71875 28.351562-28.351562 28.351562zm109.726562 0c-15.636718 0-28.351562-12.71875-28.351562-28.351562 0-15.632813 12.714844-28.351563 28.351562-28.351563 15.632813 0 28.351563 12.71875 28.351563 28.351563 0 15.632812-12.71875 28.351562-28.351563 28.351562zm0 0"/></g><path d="m287.289062 105.78125c1.558594-6.175781 2.390626-12.636719 2.390626-19.285156 0-43.585938-35.457032-79.042969-79.039063-79.042969-4.230469 0-8.378906.34375-12.425781.984375 37.695312 5.980469 66.613281 38.703125 66.613281 78.054688 0 6.652343-.835937 13.113281-2.390625 19.289062 33.015625 9.484375 57.25 39.9375 57.25 75.960938 0 39.347656-28.90625 72.066406-66.59375 78.054687 4.042969.640625 8.183594.984375 12.410156.984375 43.582032 0 79.039063-35.457031 79.039063-79.039062 0-36.023438-24.234375-66.476563-57.253907-75.960938zm0 0" fill="#f77900"/><path d="m37.113281 261.96875 1.882813 7.683594c3.046875 12.453125 11.699218 21.230468 23.425781 26.417968 1.109375.738282 1.109375 2.371094 0 3.109376-11.726563 5.1875-20.378906 13.964843-23.425781 26.417968l-1.882813 7.679688c-.386719 1.582031-2.632812 1.582031-3.019531 0l-1.882812-7.679688c-3.046876-12.453125-11.703126-21.230468-23.425782-26.417968-1.109375-.738282-1.109375-2.371094 0-3.109376 11.722656-5.1875 20.375-13.964843 23.425782-26.417968l1.882812-7.683594c.386719-1.578125 2.632812-1.578125 3.019531 0zm0 0" fill="#ffa511"/><path d="m44.664062 296.070312c-7.429687-3.289062-13.621093-8.023437-17.9375-14.214843-4.320312 6.191406-10.511718 10.925781-17.941406 14.214843-1.109375.738282-1.109375 2.371094 0 3.109376 7.433594 3.289062 13.621094 8.023437 17.941406 14.214843 4.316407-6.195312 10.507813-10.925781 17.9375-14.214843 1.109376-.738282 1.109376-2.371094 0-3.109376zm0 0" fill="#ffdc13"/><path d="m102.492188 339.375 3.058593 12.484375c4.953125 20.242187 19.019531 34.507813 38.074219 42.9375 1.804688 1.203125 1.804688 3.851563 0 5.054687-19.054688 8.429688-33.121094 22.699219-38.074219 42.933594l-3.058593 12.488282c-.628907 2.566406-4.28125 2.566406-4.910157 0l-3.054687-12.488282c-4.953125-20.238281-19.019532-34.503906-38.074219-42.933594-1.804687-1.203124-1.804687-3.851562 0-5.054687 19.054687-8.429687 33.121094-22.699219 38.074219-42.9375l3.054687-12.484375c.628907-2.566406 4.28125-2.566406 4.910157 0zm0 0" fill="#ffa511"/><path d="m114.765625 394.796875c-12.078125-5.34375-22.136719-13.035156-29.15625-23.101563-7.019531 10.0625-17.082031 17.757813-29.15625 23.101563-1.804687 1.203125-1.804687 3.851563 0 5.054687 12.078125 5.34375 22.136719 13.039063 29.15625 23.105469 7.019531-10.066406 17.078125-17.761719 29.15625-23.105469 1.800781-1.203124 1.800781-3.851562 0-5.054687zm0 0" fill="#ffdc13"/><path d="m376.535156 45.277344 1.878906 7.683594c3.050782 12.449218 11.703126 21.226562 23.425782 26.414062 1.109375.742188 1.109375 2.371094 0 3.113281-11.722656 5.1875-20.375 13.960938-23.425782 26.414063l-1.878906 7.683594c-.386718 1.582031-2.636718 1.582031-3.023437 0l-1.878907-7.683594c-3.046874-12.449219-11.703124-21.226563-23.425781-26.414063-1.109375-.742187-1.109375-2.371093 0-3.113281 11.722657-5.1875 20.375-13.964844 23.425781-26.414062l1.878907-7.683594c.386719-1.582032 2.636719-1.582032 3.023437 0zm0 0" fill="#ffa511"/><path d="m384.082031 79.375c-7.429687-3.285156-13.617187-8.023438-17.9375-14.214844-4.316406 6.195313-10.507812 10.929688-17.9375 14.214844-1.109375.738281-1.109375 2.371094 0 3.109375 7.429688 3.289063 13.621094 8.023437 17.9375 14.214844 4.320313-6.191407 10.507813-10.925781 17.9375-14.214844 1.109375-.738281 1.109375-2.371094 0-3.109375zm0 0" fill="#ffdc13"/><path d="m290.695312 472.003906h-59.132812c-4.117188 0-7.453125-3.339844-7.453125-7.453125 0-4.117187 3.335937-7.457031 7.453125-7.457031h56.648438v-25.019531h-7.675782c-6.847656 0-12.421875-5.574219-12.421875-12.425781v-30.871094c0-6.851563 5.574219-12.425782 12.421875-12.425782h7.675782v-25.019531h-56.648438c-4.117188 0-7.453125-3.339843-7.453125-7.453125 0-4.117187 3.335937-7.457031 7.453125-7.457031h59.132812c6.851563 0 12.421876 5.574219 12.421876 12.425781v29.988282c0 6.851562-5.570313 12.425781-12.421876 12.425781h-7.671874v25.902343h7.671874c6.851563 0 12.421876 5.574219 12.421876 12.425782v29.988281c0 6.851563-5.570313 12.425781-12.421876 12.425781zm0 0"/><path d="m155.777344 145.9375c-19.742188 0-35.804688 16.0625-35.804688 35.804688 0 19.742187 16.0625 35.808593 35.804688 35.808593 19.742187 0 35.804687-16.066406 35.804687-35.808593.003907-19.742188-16.058593-35.804688-35.804687-35.804688zm0 56.703125c-11.523438 0-20.894532-9.375-20.894532-20.898437 0-11.519532 9.371094-20.894532 20.894532-20.894532 11.523437 0 20.898437 9.375 20.898437 20.894532 0 11.523437-9.375 20.898437-20.898437 20.898437zm0 0"/><path d="m351.894531 177.640625c-1.386719-29.230469-18.023437-56.40625-43.398437-70.902344-4.019532-2.3125-8.222656-4.300781-12.558594-5.933593.792969-4.742188 1.195312-9.539063 1.195312-14.308594.003907-47.695313-38.800781-86.496094-86.492187-86.496094-47.695313 0-86.496094 38.800781-86.496094 86.496094 0 4.773437.402344 9.570312 1.199219 14.304687-33.332031 12.578125-56.0625 44.921875-56.0625 80.941407 0 47.695312 38.804688 86.496093 86.496094 86.496093 8.066406 0 15.972656-1.128906 23.554687-3.273437v229.640625c0 9.589843 7.804688 17.394531 17.394531 17.394531h24.894532c9.59375 0 17.394531-7.804688 17.394531-17.394531v-204.804688c0-4.117187-3.335937-7.453125-7.453125-7.453125s-7.453125 3.335938-7.453125 7.453125v204.804688c0 1.371093-1.113281 2.484375-2.484375 2.484375h-24.898438c-1.371093 0-2.484374-1.113282-2.484374-2.484375v-235.410157c5.804687-2.898437 11.3125-6.453124 16.402343-10.648437 1.355469 1.113281 2.746094 2.1875 4.164063 3.21875 14.769531 10.621094 32.777344 16.472656 50.695312 16.472656 47.695313 0 86.496094-38.800781 86.496094-86.496093-.003906-1.296876-.035156-2.640626-.105469-4.101563zm-86.394531 75.6875c-14.820312 0-29.734375-4.851563-41.960938-13.644531-2.699218-1.960938-5.296874-4.140625-7.71875-6.480469-.222656-.214844-.460937-.417969-.707031-.601563-2.925781-2.199218-7.019531-1.941406-9.652343.601563-13.4375 12.980469-31.082032 20.128906-49.683594 20.128906-39.472656 0-71.585938-32.113281-71.585938-71.589843 0-31.730469 21.324219-60.023438 51.855469-68.796876 3.863281-1.109374 6.152344-5.085937 5.171875-8.984374-.207031-.808594-.390625-1.621094-.566406-2.441407-1.058594-4.949219-1.597656-10.003906-1.597656-15.023437 0-39.472656 32.109374-71.585938 71.585937-71.585938 39.472656 0 71.585937 32.113282 71.585937 71.585938 0 5.015625-.539062 10.070312-1.597656 15.015625-.179687.820312-.363281 1.636719-.566406 2.449219-.984375 3.898437 1.304688 7.875 5.167969 8.984374 5.519531 1.585938 10.84375 3.84375 15.851562 6.726563 21.011719 12.003906 34.773438 34.488281 35.917969 58.675781.058594 1.222656.085938 2.335938.085938 3.394532.003906 39.472656-32.113282 71.585937-71.585938 71.585937zm0 0"/><path d="m233.828125 104.398438c-2.515625-3.257813-7.195313-3.863282-10.457031-1.347657-3.679688 2.839844-8.082032 4.339844-12.730469 4.339844-11.523437 0-20.898437-9.375-20.898437-20.894531 0-11.523438 9.375-20.898438 20.898437-20.898438 8.40625 0 15.964844 5.015625 19.253906 12.78125 1.605469 3.789063 5.976563 5.5625 9.769531 3.957032 3.792969-1.609376 5.5625-5.984376 3.957032-9.773438-5.628906-13.289062-18.574219-21.871094-32.984375-21.871094-19.742188 0-35.804688 16.0625-35.804688 35.804688 0 19.742187 16.0625 35.804687 35.804688 35.804687 7.976562 0 15.527343-2.574219 21.84375-7.445312 3.261719-2.515625 3.863281-7.199219 1.347656-10.457031zm0 0"/><path d="m265.5 145.9375c-19.742188 0-35.804688 16.0625-35.804688 35.804688 0 19.742187 16.0625 35.808593 35.804688 35.808593s35.808594-16.066406 35.808594-35.808593c0-19.742188-16.0625-35.804688-35.808594-35.804688zm0 56.703125c-11.519531 0-20.894531-9.375-20.894531-20.898437 0-11.519532 9.375-20.894532 20.894531-20.894532 11.523438 0 20.898438 9.375 20.898438 20.894532 0 11.523437-9.375 20.898437-20.898438 20.898437zm0 0"/><path d="m35.601562 341.917969c-4.160156 0-7.757812-2.824219-8.75-6.867188l-1.878906-7.683593c-2.347656-9.582032-8.808594-16.773438-19.203125-21.371094-.386719-.171875-.761719-.378906-1.117187-.613282-2.597656-1.734374-4.152344-4.632812-4.152344-7.761718 0-3.125 1.554688-6.023438 4.152344-7.757813.355468-.234375.730468-.441406 1.117187-.613281 10.394531-4.597656 16.855469-11.789062 19.203125-21.371094l1.878906-7.683594c.992188-4.042968 4.589844-6.867187 8.75-6.867187 4.164063 0 7.761719 2.824219 8.753907 6.867187l1.878906 7.683594c2.347656 9.582032 8.804687 16.773438 19.203125 21.371094.386719.171875.761719.378906 1.117188.613281 2.597656 1.734375 4.152343 4.632813 4.152343 7.757813s-1.554687 6.027344-4.152343 7.761718c-.355469.234376-.730469.441407-1.117188.609376-10.394531 4.601562-16.855469 11.792968-19.203125 21.375l-1.878906 7.679687c-.992188 4.046875-4.589844 6.871094-8.753907 6.871094zm-14.359374-44.292969c6.207031 4.3125 11.042968 9.695312 14.359374 15.992188 3.320313-6.296876 8.152344-11.679688 14.363282-15.992188-6.210938-4.3125-11.042969-9.699219-14.363282-15.992188-3.316406 6.296876-8.152343 11.679688-14.359374 15.992188zm0 0"/><path d="m375.023438 125.226562h-.003907c-4.164062-.003906-7.757812-2.828124-8.746093-6.871093l-1.882813-7.679688c-2.34375-9.582031-8.804687-16.773437-19.199219-21.371093-.390625-.171876-.761718-.378907-1.117187-.613282-2.601563-1.734375-4.152344-4.632812-4.152344-7.757812s1.550781-6.027344 4.152344-7.761719c.351562-.234375.726562-.441406 1.117187-.613281 10.394532-4.597656 16.855469-11.789063 19.199219-21.371094l1.882813-7.683594c.988281-4.039062 4.582031-6.863281 8.746093-6.867187h.003907c4.164062 0 7.761718 2.824219 8.75 6.867187v.003906l1.882812 7.679688c2.34375 9.582031 8.804688 16.773438 19.199219 21.371094.390625.171875.765625.378906 1.121093.617187 2.597657 1.734375 4.152344 4.632813 4.148438 7.757813 0 3.125-1.550781 6.023437-4.148438 7.753906-.355468.238281-.730468.445312-1.121093.617188-10.394531 4.597656-16.855469 11.789062-19.199219 21.371093l-1.882812 7.683594c-.988282 4.042969-4.589844 6.867187-8.75 6.867187zm-14.363282-44.296874c6.210938 4.3125 11.042969 9.699218 14.363282 15.996093 3.320312-6.296875 8.152343-11.683593 14.363281-15.996093-6.210938-4.3125-11.042969-9.695313-14.363281-15.992188-3.320313 6.296875-8.152344 11.679688-14.363282 15.992188zm0 0"/><path d="m100.039062 464.65625c-4.613281 0-8.601562-3.128906-9.695312-7.609375l-3.058594-12.484375c-5.199218-21.242188-21.277344-32.332031-33.847656-37.890625-.390625-.175781-.765625-.382813-1.121094-.617187-2.921875-1.949219-4.671875-5.214844-4.671875-8.730469s1.746094-6.777344 4.671875-8.730469c.355469-.234375.730469-.441406 1.121094-.613281 12.570312-5.5625 28.652344-16.652344 33.847656-37.890625l3.058594-12.488282c1.09375-4.480468 5.082031-7.609374 9.695312-7.609374 4.609376 0 8.597657 3.128906 9.695313 7.609374l3.054687 12.488282c1.472657 6.011718 3.914063 11.589844 7.253907 16.570312 2.292969 3.421875 1.378906 8.050782-2.042969 10.34375-3.417969 2.292969-8.050781 1.378906-10.34375-2.042968-3.1875-4.757813-5.738281-9.925782-7.617188-15.410157-5.414062 15.886719-16.351562 28.753907-32.074218 37.769531 15.722656 9.015626 26.65625 21.882813 32.074218 37.769532 5.496094-16.109375 16.664063-29.117188 32.742188-38.148438-1.683594-2.222656-2.042969-5.308594-.667969-7.949218 1.902344-3.648438 6.40625-5.066407 10.054688-3.167969 1.441406.753906 2.945312 1.476562 4.476562 2.152343.386719.171876.761719.378907 1.117188.613282 2.925781 1.949218 4.671875 5.214844 4.671875 8.730468 0 3.515626-1.746094 6.78125-4.671875 8.730469-.355469.238281-.730469.441407-1.121094.613281-12.570313 5.5625-28.648437 16.652344-33.847656 37.894532l-3.054688 12.484375c-1.101562 4.484375-5.085937 7.613281-9.699219 7.613281zm0 0"/></svg>