<?xml version="1.0" encoding="iso-8859-1"?>
<!-- Generator: Adobe Illustrator 19.0.0, SVG Export Plug-In . SVG Version: 6.00 Build 0)  -->
<svg version="1.1" id="Layer_1" xmlns="http://www.w3.org/2000/svg" xmlns:xlink="http://www.w3.org/1999/xlink" x="0px" y="0px"
	 viewBox="0 0 512 512" style="enable-background:new 0 0 512 512;" xml:space="preserve">
<path style="fill:#5B5D6E;" d="M256,0c-75.742,0-137.143,61.401-137.143,137.143v100.571h36.571V137.143
	c0-55.544,45.027-100.571,100.571-100.571s100.571,45.027,100.571,100.571v100.571h36.571V137.143C393.143,61.401,331.742,0,256,0z"
	/>
<path style="fill:#FF5050;" d="M256,512L256,512c-90.89,0-164.571-73.681-164.571-164.571V237.714
	c0-10.099,8.186-18.286,18.286-18.286h292.571c10.099,0,18.286,8.186,18.286,18.286v109.714C420.571,438.319,346.89,512,256,512z"/>
<path style="fill:#C84146;" d="M301.714,493.714c-90.89,0-164.571-73.681-164.571-164.571V219.429h-27.429
	c-10.098,0-18.286,8.186-18.286,18.286v109.714C91.429,438.319,165.11,512,256,512c30.379,0,58.741-8.377,83.166-22.731
	C327.117,492.077,314.618,493.714,301.714,493.714z"/>
<path style="fill:#464655;" d="M283.429,338.286c0-15.149-12.28-27.429-27.429-27.429c-15.149,0-27.429,12.28-27.429,27.429
	c0,11.056,6.576,20.523,16,24.864v29.993c0,6.312,5.117,11.429,11.429,11.429c6.312,0,11.429-5.117,11.429-11.429V363.15
	C276.851,358.808,283.429,349.342,283.429,338.286z"/>
<g>
	<path style="fill:#FF7873;" d="M369.616,417.759c-1.777,0-3.581-0.419-5.267-1.295c-5.598-2.915-7.777-9.817-4.857-15.415
		c8.678-16.683,13.08-34.723,13.08-53.621v-18.286c0-6.312,5.117-11.429,11.429-11.429s11.429,5.117,11.429,11.429v18.286
		c0,22.286-5.419,44.478-15.67,64.174C377.722,415.513,373.741,417.759,369.616,417.759z"/>
	<path style="fill:#FF7873;" d="M384,300.571c-6.312,0-11.429-5.117-11.429-11.429v-14.862c0-6.312,5.117-11.429,11.429-11.429
		s11.429,5.117,11.429,11.429v14.862C395.429,295.455,390.312,300.571,384,300.571z"/>
</g>
<g>
</g>
<g>
</g>
<g>
</g>
<g>
</g>
<g>
</g>
<g>
</g>
<g>
</g>
<g>
</g>
<g>
</g>
<g>
</g>
<g>
</g>
<g>
</g>
<g>
</g>
<g>
</g>
<g>
</g>
</svg>
