<svg id="icons" enable-background="new 0 0 64 64" height="512" viewBox="0 0 64 64" width="512" xmlns="http://www.w3.org/2000/svg"><path d="m63.928 54.144c-.011-.029-.025-.055-.039-.082-.02-.039-.032-.08-.057-.116l-10-15c-.019-.027-.047-.042-.067-.066-.043-.055-.09-.101-.144-.145-.05-.04-.1-.075-.156-.104-.055-.03-.11-.052-.171-.07-.066-.021-.132-.034-.201-.041-.032-.004-.06-.02-.093-.02h-12.358c3.73-4.962 7.358-11.466 7.358-18 0-8.822-7.178-16-16-16s-16 7.178-16 16c0 6.534 3.628 13.038 7.358 18h-12.358c-.033 0-.061.016-.093.019-.07.007-.136.02-.203.041-.06.019-.114.04-.169.069-.056.03-.106.065-.156.106-.054.043-.101.089-.144.143-.021.025-.049.04-.067.067l-10 15c-.024.036-.037.077-.057.116-.014.027-.028.053-.039.082-.042.108-.066.222-.068.337 0 .007-.004.013-.004.02v4c0 .553.447 1 1 1h62c.553 0 1-.447 1-1v-4c0-.007-.004-.013-.004-.02-.002-.115-.026-.227-.068-.336zm-9.147-.644-.953-2h5.971l1.333 2zm-3.814-8-2.383-5h3.881l3.333 5zm-18.967-39c7.72 0 14 6.28 14 14 0 10.734-11.144 21.944-14 24.641-.291-.275-.673-.644-1.116-1.086-.094-.186-.242-.334-.427-.431-4.092-4.166-12.457-13.821-12.457-23.124 0-7.72 6.28-14 14-14zm9.681 39 .86 3h-21.082l.86-3h7.164c1.03 1.02 1.731 1.642 1.857 1.752.189.165.425.248.66.248s.471-.083.659-.248c.126-.11.827-.732 1.857-1.752zm-14.133-2h-5.981c-.021 0-.04.011-.062.013-.066.004-.127.021-.189.038-.064.017-.128.031-.187.061-.054.026-.099.063-.146.099-.055.04-.108.078-.154.128-.039.044-.066.096-.098.146-.038.061-.074.119-.098.188-.007.019-.021.032-.027.052l-1.434 5c-.013.046-.005.09-.011.136-.007.048-.028.09-.028.14 0 .021.011.039.012.06.005.069.022.133.04.199.018.061.03.121.058.177s.065.103.103.152c.04.054.077.105.126.15.044.039.096.066.146.098.061.038.119.074.188.098.019.007.032.021.052.027.091.026.183.038.273.039h.002 23.734.002c.091-.001.183-.013.273-.039.02-.006.033-.021.052-.027.069-.023.128-.06.188-.098.051-.031.103-.059.146-.098.049-.045.086-.098.126-.15.037-.05.075-.097.103-.152s.041-.116.058-.178c.018-.065.035-.129.04-.198.001-.021.012-.038.012-.06 0-.05-.021-.092-.028-.14-.006-.046.002-.09-.011-.136l-1.434-5c-.006-.02-.021-.033-.027-.052-.023-.069-.061-.129-.099-.19-.031-.05-.058-.101-.097-.144-.046-.052-.101-.09-.156-.131-.048-.034-.091-.07-.144-.097-.06-.029-.124-.044-.19-.062-.062-.016-.12-.033-.186-.037-.021-.001-.04-.013-.063-.013h-5.981c.813-.876 1.703-1.885 2.618-3h7.299l3.063 6.426c.047.1.11.184.183.259.023.024.052.042.077.064.061.052.124.096.194.131.04.021.079.038.122.054.082.028.167.045.255.052.025.002.048.015.074.015h6.795l1.333 2h-6.221c-.005 0-.009.003-.014.003-.084.001-.166.027-.25.05-.047.014-.097.017-.141.036-.01.004-.02.003-.028.007-.061.029-.104.077-.155.116-.045.033-.094.06-.132.1-.057.06-.095.129-.135.199-.023.041-.054.077-.071.121-.034.086-.045.176-.054.268-.004.034-.021.064-.021.101 0 .006.003.01.003.015.001.077.026.151.046.229.015.055.019.112.041.163.004.008.002.016.006.022l1.226 2.571h-41.13l4.562-9.569c.003-.006.002-.013.005-.019.031-.067.04-.144.055-.219.012-.058.033-.112.034-.169 0-.009.005-.016.005-.024 0-.058-.023-.107-.033-.163-.011-.065-.015-.132-.039-.194-.025-.066-.067-.121-.106-.181-.031-.049-.056-.1-.096-.143-.056-.059-.124-.1-.192-.144-.037-.024-.063-.059-.104-.078-.006-.003-.013-.002-.019-.005-.063-.028-.133-.035-.2-.051-.065-.014-.128-.037-.192-.038-.007 0-.012-.004-.019-.004h-4.892l1.333-2h13.394c.915 1.115 1.805 2.124 2.618 3zm-18.68 1h4.641l-4.29 9h-6.351zm53.132 13h-60v-2h60z"/><path d="m32.001 32.499c4.963 0 9-4.037 9-9v-3.001c0-4.963-4.037-9-9-9s-9 4.037-9 9v3.001c0 4.963 4.037 9 9 9zm0-2c-2.452 0-4.61-1.271-5.861-3.186 1.576 1.357 3.622 2.185 5.861 2.185s4.285-.827 5.861-2.185c-1.25 1.916-3.409 3.186-5.861 3.186zm0-17.001c3.859 0 7 3.141 7 7s-3.141 7-7 7-7-3.141-7-7 3.141-7 7-7z"/><path d="m29.084 21.317-.346 2.014c-.064.375.089.754.396.978.309.225.718.254 1.053.077l1.813-.949 1.813.949c.146.076.305.114.464.114.008 0 .016.001.02 0 .553 0 1-.447 1-1 0-.128-.023-.25-.067-.362l-.313-1.82 1.461-1.424c.273-.266.371-.663.254-1.025-.117-.361-.43-.626-.807-.681l-2.021-.296-.907-1.835c-.169-.341-.516-.557-.897-.557-.38 0-.728.216-.896.557l-.908 1.835-2.021.296c-.377.055-.689.319-.807.681-.117.362-.02.76.254 1.025zm1.92-1.523c.325-.048.606-.251.752-.546l.244-.493.243.493c.146.294.427.498.752.546l.537.079-.389.378c-.236.23-.344.562-.288.887l.093.537-.484-.253c-.291-.152-.637-.152-.928 0l-.484.254.092-.539c.056-.324-.052-.655-.288-.886l-.389-.378z"/></svg>