<?xml version="1.0" encoding="iso-8859-1"?>
<!-- Generator: Adobe Illustrator 18.0.0, SVG Export Plug-In . SVG Version: 6.00 Build 0)  -->
<!DOCTYPE svg PUBLIC "-//W3C//DTD SVG 1.1//EN" "http://www.w3.org/Graphics/SVG/1.1/DTD/svg11.dtd">
<svg version="1.1" id="Capa_1" xmlns="http://www.w3.org/2000/svg" xmlns:xlink="http://www.w3.org/1999/xlink" x="0px" y="0px"
	 viewBox="0 0 296.898 296.898" style="enable-background:new 0 0 296.898 296.898;" xml:space="preserve">
<g>
	<path d="M127.349,213.391c5.14-3.491,9.355-10.149,9.355-17.112v-27.826c-13.61,1.935-25.331,6.137-34.974,12.582
		c-2.257,1.508-4.695,2.674-7.243,3.517L127.349,213.391z"/>
	<path d="M296.898,111.807c-0.018-5.701-3.349-10.905-8.448-13.454c-2.411-1.205-72.773-32.137-133.432-32.137
		c-30.595,0-57.212,7.228-78.541,21.481c-4.191,2.801-6.997,7.509-6.997,12.55v55.723c0,5.57,3.357,10.708,8.27,13.333
		c2.24,1.197,4.727,1.792,7.208,1.792c2.964,0,5.92-0.848,8.44-2.533c16.275-10.876,37.044-16.35,61.587-16.35
		c53.435,0,119.606,29.074,120.135,29.337c2.124,1.057,4.464,2.039,6.763,2.039c0.009,0,0.017,0,0.025,0
		c8.336,0,14.992-7.215,14.992-15.551V111.807z"/>
	<path d="M64.638,178.312c-0.022-0.02-0.042-0.042-0.064-0.062c-6.344-5.671-10.095-13.709-10.095-22.28v-8.431
		c-17.049-1.258-33.074-5.529-44.236-9.217c-3.123-1.034-6.556,0.005-8.584,2.593c-2.028,2.588-2.216,6.17-0.467,8.955
		l22.749,36.257L2.23,208.689c-1.894,1.968-2.62,4.783-1.914,7.421c0.705,2.639,2.738,4.715,5.362,5.476
		c20.822,6.036,40.52,9.096,58.547,9.096c18.499,0,34.711-3.175,49.121-9.623L64.638,178.312z"/>
</g>
<g>
</g>
<g>
</g>
<g>
</g>
<g>
</g>
<g>
</g>
<g>
</g>
<g>
</g>
<g>
</g>
<g>
</g>
<g>
</g>
<g>
</g>
<g>
</g>
<g>
</g>
<g>
</g>
<g>
</g>
</svg>
