<?xml version="1.0" encoding="iso-8859-1"?>
<!-- Generator: Adobe Illustrator 19.0.0, SVG Export Plug-In . SVG Version: 6.00 Build 0)  -->
<svg version="1.1" id="Layer_1" xmlns="http://www.w3.org/2000/svg" xmlns:xlink="http://www.w3.org/1999/xlink" x="0px" y="0px"
	 viewBox="0 0 512 512" style="enable-background:new 0 0 512 512;" xml:space="preserve">
<circle style="fill:#FED159;" cx="256.93" cy="155.821" r="147.535"/>
<path style="fill:#F8C889;" d="M295.825,303.194h-77.788c-11.211,0-20.297,9.088-20.297,20.297l0,0
	c0,11.211,9.088,20.297,20.297,20.297h77.788c11.211,0,20.297-9.088,20.297-20.297l0,0
	C316.122,312.281,307.034,303.194,295.825,303.194z"/>
<path style="fill:#E4A962;" d="M227.442,323.491L227.442,323.491c0-11.211,9.088-20.298,20.298-20.298h-29.704
	c-11.211,0-20.298,9.088-20.298,20.297l0,0c0,11.211,9.088,20.297,20.298,20.297h29.704
	C236.53,343.789,227.442,334.701,227.442,323.491z"/>
<path style="fill:#F8C889;" d="M256.931,503.896L256.931,503.896c-16.106,0-29.163-13.057-29.163-29.163V372.951
	c0-16.106,13.057-29.163,29.163-29.163l0,0c16.106,0,29.163,13.057,29.163,29.163v101.782
	C286.094,490.841,273.037,503.896,256.931,503.896z"/>
<path style="fill:#E4A962;" d="M244.874,474.734V372.95c0-13.129,8.678-24.229,20.61-27.885c-2.705-0.829-5.576-1.277-8.553-1.277
	l0,0c-16.106,0-29.163,13.057-29.163,29.163v101.783c0,16.106,13.057,29.163,29.163,29.163l0,0c2.977,0,5.847-0.448,8.553-1.277
	C253.552,498.964,244.874,487.864,244.874,474.734z"/>
<circle style="fill:#A0DBFD;" cx="256.93" cy="155.821" r="108.159"/>
<path style="fill:#C1E9FD;" d="M329.007,155.826c0,53.585-38.972,98.06-90.116,106.649c5.867,0.985,11.892,1.506,18.038,1.506
	c59.732,0,108.155-48.422,108.155-108.154S316.662,47.672,256.93,47.672c-6.147,0-12.171,0.52-18.038,1.506
	C290.035,57.766,329.007,102.24,329.007,155.826z"/>
<path d="M256.001,39.377c-64.157,0-116.353,52.196-116.353,116.353s52.196,116.353,116.353,116.353s116.353-52.196,116.353-116.353
	S320.158,39.377,256.001,39.377z M256.001,255.686c-55.116,0-99.956-44.84-99.956-99.956s44.84-99.956,99.956-99.956
	s99.956,44.84,99.956,99.956S311.116,255.686,256.001,255.686z"/>
<path d="M411.73,155.731c0-34.204-10.879-66.665-31.462-93.873c-2.731-3.611-7.874-4.325-11.485-1.592
	c-3.612,2.732-4.325,7.874-1.593,11.485c18.411,24.336,28.142,53.377,28.142,83.98c0,76.828-62.505,139.333-139.333,139.333
	s-139.333-62.505-139.333-139.333S179.172,16.398,256.001,16.398c33.217,0,65.386,11.882,90.579,33.456
	c3.441,2.946,8.615,2.544,11.559-0.894c2.945-3.439,2.545-8.615-0.894-11.56C329.083,13.282,293.127,0,256.001,0
	C170.13,0,100.27,69.861,100.27,155.731c0,66.004,41.277,122.542,99.371,145.173c-6.706,5.219-11.031,13.358-11.031,22.493
	c0,15.713,12.784,28.497,28.497,28.497h7.986c-4.07,5.982-6.453,13.199-6.453,20.964v22.722c0,4.528,3.671,8.199,8.199,8.199
	c4.528,0,8.199-3.671,8.199-8.199v-22.722c0-11.559,9.405-20.964,20.964-20.964c11.559,0,20.964,9.405,20.964,20.964V474.64
	c0,11.559-9.405,20.964-20.964,20.964c-11.559,0-20.964-9.405-20.964-20.964v-49.547c0-4.528-3.671-8.199-8.199-8.199
	c-4.528,0-8.199,3.671-8.199,8.199v49.546c0,20.601,16.761,37.361,37.361,37.361c20.601,0,37.361-16.761,37.361-37.361V372.856
	c0-7.765-2.383-14.982-6.453-20.964h7.986c15.713,0,28.496-12.784,28.496-28.497c0-9.136-4.327-17.275-11.033-22.494
	C370.453,278.27,411.73,221.734,411.73,155.731z M294.896,335.495h-77.788c-6.672,0-12.099-5.428-12.099-12.099
	s5.428-12.098,12.099-12.098h77.788c6.672,0,12.098,5.428,12.098,12.098C306.994,330.067,301.566,335.495,294.896,335.495z"/>
<g>
</g>
<g>
</g>
<g>
</g>
<g>
</g>
<g>
</g>
<g>
</g>
<g>
</g>
<g>
</g>
<g>
</g>
<g>
</g>
<g>
</g>
<g>
</g>
<g>
</g>
<g>
</g>
<g>
</g>
</svg>
