<?xml version="1.0" encoding="iso-8859-1"?>
<!-- Generator: Adobe Illustrator 16.0.0, SVG Export Plug-In . SVG Version: 6.00 Build 0)  -->
<!DOCTYPE svg PUBLIC "-//W3C//DTD SVG 1.1//EN" "http://www.w3.org/Graphics/SVG/1.1/DTD/svg11.dtd">
<svg version="1.1" id="Capa_1" xmlns="http://www.w3.org/2000/svg" xmlns:xlink="http://www.w3.org/1999/xlink" x="0px" y="0px"
	 width="576.281px" height="576.281px" viewBox="0 0 576.281 576.281" style="enable-background:new 0 0 576.281 576.281;"
	 xml:space="preserve">
<g>
	<g>
		<g>
			<path d="M15.977,479.417c11.063,11.951,26.715,18.807,42.943,18.807c11.384,0,22.469-3.34,32.06-9.656
				c16.849-11.1,44.967-27.186,83.241-40.795c36.443-12.957,75.037-21.213,115.065-24.635v29.748c0,8.281,1.684,16.273,5.003,23.754
				c3.168,7.137,7.675,13.469,13.396,18.822c10.914,10.209,25.15,15.83,40.083,15.83c15.157,0,29.546-5.854,40.517-16.482
				L558.03,330.317c5.761-5.584,10.236-12.162,13.301-19.555c2.947-7.107,4.444-14.617,4.45-22.322
				c0.006-7.705-1.479-15.217-4.416-22.33c-3.054-7.396-7.519-13.982-13.271-19.574l-169.743-165
				c-10.978-10.669-25.388-16.546-40.577-16.548l0,0c-14.934-0.001-29.17,5.62-40.085,15.829
				c-5.724,5.353-10.231,11.686-13.399,18.824c-3.319,7.48-5.002,15.472-5.002,23.753v33.81c-48.832,4.019-92.462,15.136-130,33.156
				c-39.032,18.738-71.783,44.996-97.341,78.044c-20.422,26.406-36.165,57.037-46.793,91.043
				C7.564,383.731,2.694,409.253,0.68,435.3c-0.644,8.316,0.443,16.475,3.23,24.25C6.562,466.948,10.622,473.632,15.977,479.417z
				 M43.392,438.604c5.466-70.688,43.155-233.273,273.686-240.047c8.386-0.247,15.049-7.136,15.049-15.525v-59.636
				c0-9.348,7.65-15.567,15.643-15.566c3.75,0,7.576,1.37,10.722,4.426l169.745,165c6.283,6.107,6.274,16.199-0.018,22.296
				l-169.746,164.49c-3.143,3.047-6.961,4.41-10.703,4.41c-7.993,0-15.643-6.219-15.643-15.566v-58.639
				c0-8.594-6.97-15.539-15.506-15.539c-0.15,0-0.302,0.002-0.454,0.006c-124.336,3.578-209.542,48.248-248.752,74.076
				c-2.714,1.789-5.643,2.594-8.495,2.594C50.433,455.384,42.647,448.243,43.392,438.604z"/>
			<path d="M347.769,511.792c-15.062,0-29.418-5.67-40.425-15.965c-5.771-5.399-10.316-11.787-13.512-18.984
				c-3.349-7.546-5.046-15.606-5.046-23.957v-29.203c-39.757,3.443-78.242,11.706-114.398,24.561
				c-38.231,13.595-66.31,29.659-83.134,40.742c-9.674,6.371-20.855,9.738-32.335,9.738c-16.366,0-32.152-6.913-43.31-18.967
				c-5.401-5.835-9.496-12.577-12.17-20.038c-2.811-7.843-3.907-16.071-3.258-24.458c2.018-26.086,6.895-51.644,14.496-75.962
				c10.646-34.062,26.417-64.746,46.875-91.199c25.606-33.11,58.416-59.417,97.52-78.189
				c37.402-17.955,81.041-29.113,129.716-33.166v-33.349c0-8.352,1.697-16.412,5.045-23.956c3.196-7.201,7.743-13.589,13.515-18.987
				c11.007-10.294,25.362-15.964,40.423-15.964c15.323,0.001,29.858,5.928,40.93,16.689l169.743,165
				c5.801,5.638,10.305,12.28,13.385,19.741c2.962,7.172,4.46,14.75,4.454,22.521c-0.006,7.771-1.516,15.346-4.488,22.514
				c-3.09,7.453-7.604,14.089-13.415,19.723L388.633,495.169C377.568,505.889,363.056,511.792,347.769,511.792z M289.786,422.593
				v30.293c0,8.21,1.669,16.134,4.96,23.551c3.141,7.075,7.608,13.354,13.281,18.66c10.82,10.121,24.934,15.695,39.741,15.695
				c15.026,0,29.292-5.804,40.169-16.342l169.745-164.492c5.713-5.537,10.149-12.061,13.187-19.387
				c2.922-7.046,4.406-14.492,4.412-22.131c0.006-7.64-1.467-15.088-4.378-22.139c-3.028-7.334-7.455-13.863-13.158-19.406
				l-169.743-165c-10.884-10.578-25.171-16.405-40.229-16.406c-14.81,0-28.923,5.574-39.743,15.694
				c-5.674,5.306-10.144,11.584-13.284,18.662c-3.291,7.416-4.959,15.339-4.959,23.55v34.27l-0.459,0.038
				c-48.736,4.011-92.416,15.151-129.824,33.109c-38.962,18.705-71.652,44.914-97.162,77.899
				c-20.385,26.359-36.101,56.938-46.711,90.887c-7.578,24.246-12.441,49.729-14.453,75.74c-0.638,8.245,0.439,16.335,3.203,24.043
				c2.629,7.334,6.653,13.961,11.962,19.696c10.97,11.851,26.488,18.646,42.576,18.646c11.284,0,22.275-3.311,31.785-9.574
				c16.87-11.112,45.023-27.221,83.349-40.848c36.401-12.942,75.156-21.24,115.19-24.662L289.786,422.593z M347.77,468.952
				c-10.104,0-16.143-8.169-16.143-16.066v-58.639c0-8.44-6.933-15.262-15.447-15.033c-123.882,3.564-208.861,47.89-248.49,73.994
				c-2.656,1.75-5.688,2.676-8.77,2.676c-4.468,0-8.795-1.905-11.871-5.228c-3.029-3.273-4.505-7.566-4.156-12.09
				c5.417-70.051,42.977-233.715,274.17-240.509c8.166-0.24,14.563-6.84,14.563-15.025v-59.636c0-7.897,6.037-16.066,16.141-16.066
				c4.169,0,7.997,1.58,11.072,4.568l169.745,165c3.136,3.048,4.861,7.136,4.858,11.509c-0.003,4.375-1.735,8.46-4.877,11.505
				L358.82,464.401C355.75,467.378,351.929,468.952,347.77,468.952z M316.621,378.208c8.825,0,16.006,7.195,16.006,16.039v58.639
				c0,7.406,5.664,15.066,15.143,15.066c3.894,0,7.475-1.477,10.355-4.27l169.746-164.49c2.945-2.854,4.569-6.686,4.572-10.786
				c0.003-4.101-1.615-7.934-4.556-10.792l-169.745-165c-2.884-2.802-6.471-4.284-10.373-4.285c-9.479,0-15.143,7.66-15.143,15.066
				v59.636c0,8.73-6.823,15.769-15.534,16.025c-76.748,2.255-257.004,30.115-273.202,239.586c-0.328,4.242,1.055,8.267,3.893,11.333
				c2.887,3.119,6.946,4.907,11.137,4.907c2.885,0,5.728-0.868,8.219-2.511c39.718-26.163,124.883-70.587,249.013-74.159
				C316.311,378.21,316.467,378.208,316.621,378.208z"/>
		</g>
	</g>
</g>
<g>
</g>
<g>
</g>
<g>
</g>
<g>
</g>
<g>
</g>
<g>
</g>
<g>
</g>
<g>
</g>
<g>
</g>
<g>
</g>
<g>
</g>
<g>
</g>
<g>
</g>
<g>
</g>
<g>
</g>
</svg>
